<svg width="14" height="14" viewBox="0 0 10 10" fill="none" xmlns="http://www.w3.org/2000/svg">
<path fill-rule="evenodd" clip-rule="evenodd" d="M5.00016 0.333333C5.36835 0.333333 5.66683 0.63181 5.66683 1V4.33333H9.00016C9.36835 4.33333 9.66683 4.63181 9.66683 5C9.66683 5.36819 9.36835 5.66667 9.00016 5.66667H5.66683V9C5.66683 9.36819 5.36835 9.66667 5.00016 9.66667C4.63197 9.66667 4.3335 9.36819 4.3335 9V5.66667H1.00016C0.631973 5.66667 0.333496 5.36819 0.333496 5C0.333496 4.63181 0.631973 4.33333 1.00016 4.33333H4.3335V1C4.3335 0.63181 4.63197 0.333333 5.00016 0.333333Z" fill="#012406"/>
</svg>
